# Alias OBJ Model File
# Exported from SketchUp, (c) 2000-2012 Trimble Navigation Limited
# File units = meters

mtllib toilet_mtl

g Mesh1 Toilet_Paper1 Model

usemtl FrontColor
v 0 1.76763 -2.96815
vt 0 2.63049
vn 0 0.965926 0.258819
v 0 1.73423 -2.71445
vt 0 2.41838
vn 0 1 4.19926e-16
v 5.4289 1.73423 -2.71445
vt 4.5 2.41838
v 5.4289 1.76763 -2.96815
vt 4.5 2.63049
f 1/1/1 2/2/2 3/3/2 4/4/1 

v 0 0.0924927 -3.417
vt -2.83234 0.0766669
vn -1 0 -0
vt -2.25 1.4375
vt -2.46029 1.46519
f 5/5/3 2/6/3 1/7/3

v 0 0 -2.71445
vt -2.25 0
f 6/8/3 2/6/3 5/5/3

v 0 1.76763 -2.46075
vt -2.03971 1.46519
f 6/8/3 7/9/3 2/6/3

v 0 1.86556 -2.22434
vt -1.84375 1.54635
f 6/8/3 8/10/3 7/9/3

v 0 2.02133 -2.02133
vt -1.67548 1.67548
f 6/8/3 9/11/3 8/10/3

v 0 0.0924927 -2.0119
vt -1.66766 0.0766669
f 10/12/3 9/11/3 6/8/3

v 0 2.22434 -1.86556
vt -1.54635 1.84375
f 10/12/3 11/13/3 9/11/3

v 0 2.46075 -1.76763
vt -1.46519 2.03971
f 10/12/3 12/14/3 11/13/3

v 0 2.71445 -1.73423
vt -1.4375 2.25
f 10/12/3 13/15/3 12/14/3

v 0 5.06524 -1.35723
vt -1.125 4.19856
f 10/12/3 14/16/3 13/15/3

v 0 0.363668 -1.35723
vt -1.125 0.301443
f 15/17/3 14/16/3 10/12/3

v 0 4.63386 -0.795044
vt -0.65901 3.84099
f 15/17/3 16/18/3 14/16/3

v 0 0.795044 -0.795044
vt -0.65901 0.65901
f 17/19/3 16/18/3 15/17/3

v 0 4.07168 -0.363668
vt -0.301443 3.375
f 17/19/3 18/20/3 16/18/3

v 0 1.35723 -0.363668
vt -0.301443 1.125
f 19/21/3 18/20/3 17/19/3

v 0 3.417 -0.0924927
vt -0.0766669 2.83234
f 19/21/3 20/22/3 18/20/3

v 0 2.0119 -0.0924927
vt -0.0766669 1.66766
f 21/23/3 20/22/3 19/21/3

v 0 2.57127 -0.0188504
vt -0.015625 2.13132
f 22/24/3 20/22/3 21/23/3

v 0 2.71445 -0
vt 0 2.25
f 20/22/3 22/24/3 23/25/3

v 0 0.226204 -0
vt 0 0.1875
v 0 0.226204 -0.0188504
vt -0.015625 0.1875
f 24/26/3 23/25/3 22/24/3 25/27/3 

vn 0 0 1
v 5.4289 0.226204 -0
vt 4.5 0.1875
v 5.4289 2.71445 -0
vt 4.5 2.25
f 23/25/4 24/26/4 26/28/4 27/29/4 

vt -4.5 0
vn 0 -1 -0
vt 0 0
vt 0 0.015625
v 5.4289 0.226204 -0.0188504
vt -4.5 0.015625
f 26/30/5 24/31/5 25/32/5 28/33/5 

vt 0 2.13132
vn 0 0 -1
v 5.4289 2.57127 -0.0188504
vt -4.5 2.13132
vt -4.5 0.1875
f 22/34/6 29/35/6 28/36/6 25/26/6 

v 5.4289 2.0119 -0.0924927
vt 4.5 1.64338
vn 0 -0.258819 0.965926
vt 4.5 2.11104
vn 0 -0.130526 0.991445
vt 0 2.11104
vt 0 1.64338
f 30/37/7 29/38/8 22/39/8 21/40/7 

v 5.4289 3.417 -0.0924927
vt 0.0766669 2.83234
vn 1 0 -0
vt 0.015625 2.13132
vt 0.0766669 1.66766
f 31/41/9 29/42/9 30/43/9

f 29/42/9 31/41/9 27/25/9

vt 0 2.81812
vn 0 0.258819 0.965926
vt 0 2.23075
vn 0 0.130526 0.991445
vt 4.5 2.23075
vt 4.5 2.81812
f 20/44/10 23/45/11 27/46/11 31/47/10 

f 23/45/8 22/39/8 29/38/8 27/46/8 

vt 0.015625 0.1875
f 28/48/9 29/42/9 27/25/9 26/26/9 

vt 0 3.23345
vn 0 0.5 0.866025
vt 0 2.64608
vt 4.5 2.64608
v 5.4289 4.07168 -0.363668
vt 4.5 3.23345
f 18/49/12 20/50/10 31/51/10 32/52/12 

v 5.4289 1.35723 -0.363668
vt 0.301443 1.125
vt 0.301443 3.375
f 31/41/9 33/53/9 32/54/9

f 31/41/9 30/43/9 33/53/9

vt 0 1.51138
vt 0 0.924007
vn 0 -0.5 0.866025
vt 4.5 0.924007
vt 4.5 1.51138
f 21/55/7 19/56/13 33/57/13 30/58/7 

vt 0 0.709016
vt 0 0.121648
vn 0 -0.707107 0.707107
v 5.4289 0.795044 -0.795044
vt 4.5 0.121648
vt 4.5 0.709016
f 19/59/13 17/60/14 34/61/14 33/62/13 

vt 0 -0.121648
vt 0 -0.709016
vn 0 -0.866025 0.5
v 5.4289 0.363668 -1.35723
vt 4.5 -0.709016
vt 4.5 -0.121648
f 17/63/14 15/64/15 35/65/15 34/66/14 

vt 0 -0.924007
vt 0 -1.51138
vn 0 -0.965926 0.258819
v 5.4289 0.0924927 -2.0119
vt 4.5 -1.51138
vt 4.5 -0.924007
f 15/67/15 10/68/16 36/69/16 35/70/15 

vt 0 -1.64338
vt 0 -2.23075
vn 0 -1 1.6797e-16
v 5.4289 0 -2.71445
vt 4.5 -2.23075
vt 4.5 -1.64338
f 10/71/16 6/72/17 37/73/17 36/74/16 

vn 0 -0.965926 -0.258819
v 5.4289 0.0924927 -3.417
vt -4.5 2.81812
vt -4.5 2.23075
f 6/45/17 5/44/18 38/75/18 37/76/17 

v 0 0.363668 -4.07168
vn 0 -0.866025 -0.5
v 5.4289 0.363668 -4.07168
vt -4.5 3.23345
vt -4.5 2.64608
f 5/50/18 39/49/19 40/77/19 38/78/18 

v 0 2.22434 -3.56335
vt -2.95365 1.84375
vt -3.375 0.301443
f 5/5/3 41/79/3 39/80/3

v 0 2.02133 -3.40757
vt -2.82452 1.67548
f 5/5/3 42/81/3 41/79/3

v 0 1.86556 -3.20456
vt -2.65625 1.54635
f 5/5/3 43/82/3 42/81/3

f 5/5/3 1/7/3 43/82/3

vt 0 3.04582
vn 0 0.866025 0.5
vt 0 2.83371
vt 4.5 2.83371
v 5.4289 1.86556 -3.20456
vt 4.5 3.04582
f 43/83/20 1/84/1 4/85/1 44/86/20 

vt 2.46029 1.46519
vt 2.83234 0.0766669
vt 2.65625 1.54635
f 4/87/9 38/88/9 44/89/9

vt 2.25 1.4375
f 3/90/9 38/88/9 4/87/9

vt 2.25 0
f 3/90/9 37/91/9 38/88/9

v 5.4289 1.76763 -2.46075
vt 2.03971 1.46519
f 45/92/9 37/91/9 3/90/9

v 5.4289 1.86556 -2.22434
vt 1.84375 1.54635
f 46/93/9 37/91/9 45/92/9

v 5.4289 2.02133 -2.02133
vt 1.67548 1.67548
f 47/94/9 37/91/9 46/93/9

vt 1.66766 0.0766669
f 47/94/9 36/95/9 37/91/9

v 5.4289 2.22434 -1.86556
vt 1.54635 1.84375
f 48/96/9 36/95/9 47/94/9

v 5.4289 2.46075 -1.76763
vt 1.46519 2.03971
f 49/97/9 36/95/9 48/96/9

v 5.4289 2.71445 -1.73423
vt 1.4375 2.25
f 50/98/9 36/95/9 49/97/9

v 5.4289 5.06524 -1.35723
vt 1.125 4.19856
f 51/99/9 36/95/9 50/98/9

vt 1.125 0.301443
f 51/99/9 35/100/9 36/95/9

v 5.4289 4.63386 -0.795044
vt 0.65901 3.84099
f 52/101/9 35/100/9 51/99/9

vt 0.65901 0.65901
f 52/101/9 34/102/9 35/100/9

f 32/54/9 34/102/9 52/101/9

f 32/54/9 33/53/9 34/102/9

vt 0 3.44844
vn 0 0.707107 0.707107
vt 0 2.86107
vt 4.5 2.86107
vt 4.5 3.44844
f 16/103/21 18/104/12 32/105/12 52/106/21 

f 14/103/20 16/104/21 52/105/21 51/106/20 

v 0 5.33641 -2.0119
v 5.4289 5.33641 -2.0119
f 53/49/1 14/50/20 51/51/20 54/52/1 

vt -1.66766 4.42333
f 53/107/3 13/15/3 14/16/3

v 0 2.96815 -1.76763
vt -1.46519 2.46029
f 13/15/3 53/107/3 55/108/3

v 0 3.20456 -1.86556
vt -1.54635 2.65625
f 55/108/3 53/107/3 56/109/3

v 0 3.40757 -2.02133
vt -1.67548 2.82452
f 56/109/3 53/107/3 57/110/3

v 0 5.4289 -2.71445
vt -2.25 4.5
f 57/110/3 53/107/3 58/111/3

vn 0 1 -3.21943e-16
v 5.4289 5.4289 -2.71445
f 58/44/22 53/45/1 54/46/1 59/47/22 

vt 1.66766 4.42333
v 5.4289 3.40757 -2.02133
vt 1.67548 2.82452
vt 2.25 4.5
f 54/112/9 60/113/9 59/114/9

v 5.4289 3.20456 -1.86556
vt 1.54635 2.65625
f 54/112/9 61/115/9 60/113/9

v 5.4289 2.96815 -1.76763
vt 1.46519 2.46029
f 54/112/9 62/116/9 61/115/9

f 54/112/9 50/98/9 62/116/9

f 50/98/9 54/112/9 51/99/9

vn 0 5.59902e-16 -1
vn 0 -0.258819 -0.965926
vt -4.5 2.63049
vt -4.5 2.41838
f 13/2/23 55/1/24 62/117/24 50/118/23 

vn 0 -0.5 -0.866025
vt -4.5 3.04582
vt -4.5 2.83371
f 55/84/24 56/83/25 61/119/25 62/120/24 

vt 0 3.04871
vt 0 3.26081
vn 0 -0.707107 -0.707107
vt -4.5 3.26081
vt -4.5 3.04871
f 56/121/25 57/122/26 60/123/26 61/124/25 

v 0 3.56335 -2.22434
v 5.4289 3.56335 -2.22434
f 57/121/26 63/122/19 64/123/19 60/124/26 

vt -1.84375 2.95365
f 57/110/3 58/111/3 63/125/3

v 0 3.66127 -2.46075
vt -2.03971 3.03481
f 63/125/3 58/111/3 65/126/3

v 0 3.69467 -2.71445
vt -2.25 3.0625
f 65/126/3 58/111/3 66/127/3

v 0 5.33641 -3.417
vt -2.83234 4.42333
f 66/127/3 58/111/3 67/128/3

vn 0 0.965926 -0.258819
vt -4.5 -1.64338
v 5.4289 5.33641 -3.417
vt -4.5 -2.23075
f 67/72/27 58/71/22 59/129/22 68/130/27 

v 5.4289 3.66127 -2.96815
vt 2.46029 3.03481
vt 2.83234 4.42333
f 59/114/9 69/131/9 68/132/9

v 5.4289 3.69467 -2.71445
vt 2.25 3.0625
f 59/114/9 70/133/9 69/131/9

v 5.4289 3.66127 -2.46075
vt 2.03971 3.03481
f 59/114/9 71/134/9 70/133/9

vt 1.84375 2.95365
f 59/114/9 64/135/9 71/134/9

f 59/114/9 60/113/9 64/135/9

f 63/84/19 65/83/18 71/119/18 64/120/19 

vn 0 -1 -3.21943e-16
f 65/2/18 66/1/28 70/117/28 71/118/18 

vt 0 -1.83101
v 0 3.66127 -2.96815
vt 0 -2.04312
vt 4.5 -2.04312
vt 4.5 -1.83101
f 66/136/28 72/137/16 69/138/16 70/139/28 

vt -2.46029 3.03481
f 66/127/3 67/128/3 72/140/3

v 0 3.56335 -3.20456
vt -2.65625 2.95365
f 72/140/3 67/128/3 73/141/3

v 0 3.40757 -3.40757
vt -2.82452 2.82452
f 73/141/3 67/128/3 74/142/3

v 0 3.20456 -3.56335
vt -2.95365 2.65625
f 74/142/3 67/128/3 75/143/3

v 0 5.06524 -4.07168
vt -3.375 4.19856
f 75/143/3 67/128/3 76/144/3

vn 0 0.866025 -0.5
vt -4.5 -0.924007
v 5.4289 5.06524 -4.07168
vt -4.5 -1.51138
f 76/68/29 67/67/27 68/145/27 77/146/29 

v 5.4289 3.20456 -3.56335
vt 2.95365 2.65625
vt 3.375 4.19856
f 68/132/9 78/147/9 77/148/9

v 5.4289 3.40757 -3.40757
vt 2.82452 2.82452
f 68/132/9 79/149/9 78/147/9

v 5.4289 3.56335 -3.20456
vt 2.65625 2.95365
f 68/132/9 80/150/9 79/149/9

f 68/132/9 69/131/9 80/150/9

vt 0 -1.11164
vt 0 -1.32374
vt 4.5 -1.32374
vt 4.5 -1.11164
f 72/151/16 73/152/15 80/153/15 69/154/16 

vt 0 -0.309279
vt 0 -0.521384
vt 4.5 -0.521384
vt 4.5 -0.309279
f 73/155/15 74/156/14 79/157/14 80/158/15 

vt 0 0.521384
vt 0 0.309279
vt 4.5 0.309279
vt 4.5 0.521384
f 74/159/14 75/160/13 78/161/13 79/162/14 

vt 0 1.32374
v 0 2.96815 -3.66127
vt 0 1.11164
v 5.4289 2.96815 -3.66127
vt 4.5 1.11164
vt 4.5 1.32374
f 75/163/13 81/164/7 82/165/7 78/166/13 

vt -3.03481 2.46029
f 75/143/3 76/144/3 81/167/3

v 0 2.71445 -3.69467
vt -3.0625 2.25
f 81/167/3 76/144/3 83/168/3

f 83/168/3 76/144/3 39/80/3

v 0 0.795044 -4.63386
vt -3.84099 0.65901
f 39/80/3 76/144/3 84/169/3

v 0 4.63386 -4.63386
vt -3.84099 3.84099
f 84/169/3 76/144/3 85/170/3

vn 0 0.707107 -0.707107
vt -4.5 -0.121648
v 5.4289 4.63386 -4.63386
vt -4.5 -0.709016
f 85/64/30 76/63/29 77/171/29 86/172/30 

v 5.4289 0.795044 -4.63386
vt 3.84099 0.65901
vt 3.84099 3.84099
f 77/148/9 87/173/9 86/174/9

vt 3.375 0.301443
f 77/148/9 40/175/9 87/173/9

v 5.4289 2.71445 -3.69467
vt 3.0625 2.25
f 77/148/9 88/176/9 40/175/9

vt 3.03481 2.46029
f 77/148/9 82/177/9 88/176/9

f 77/148/9 78/147/9 82/177/9

vt 0 2.04312
vt 0 1.83101
vn 0 -2.23961e-16 1
vt 4.5 1.83101
vt 4.5 2.04312
f 81/178/7 83/179/31 88/180/31 82/181/7 

v 0 2.46075 -3.66127
v 5.4289 2.46075 -3.66127
f 83/1/31 89/2/10 90/3/10 88/4/31 

vt -3.03481 2.03971
f 39/80/3 89/182/3 83/168/3

f 39/80/3 41/79/3 89/182/3

v 5.4289 2.22434 -3.56335
f 89/83/10 41/84/12 91/85/12 90/86/10 

v 5.4289 2.02133 -3.40757
vt 4.5 3.04871
vt 4.5 3.26081
f 41/122/12 42/121/21 92/183/21 91/184/12 

f 42/122/21 43/121/20 44/183/20 92/184/21 

vt 2.82452 1.67548
f 44/89/9 38/88/9 92/185/9

vt 2.95365 1.84375
f 92/185/9 38/88/9 91/186/9

f 91/186/9 38/88/9 40/175/9

vt 3.03481 2.03971
f 91/186/9 40/175/9 90/187/9

f 90/187/9 40/175/9 88/176/9

vt -4.5 3.44844
vt -4.5 2.86107
f 39/104/19 84/103/26 87/188/26 40/189/19 

v 0 1.35723 -5.06524
v 5.4289 1.35723 -5.06524
f 84/104/26 93/103/25 94/188/25 87/189/26 

vt -4.19856 1.125
f 84/169/3 85/170/3 93/190/3

v 0 4.07168 -5.06524
vt -4.19856 3.375
f 93/190/3 85/170/3 95/191/3

vn 0 0.5 -0.866025
vt -4.5 0.709016
v 5.4289 4.07168 -5.06524
vt -4.5 0.121648
f 95/60/32 85/59/30 86/192/30 96/193/32 

vt 4.19856 1.125
vt 4.19856 3.375
f 86/174/9 94/194/9 96/195/9

f 86/174/9 87/173/9 94/194/9

v 5.4289 2.0119 -5.33641
vt 4.42333 1.66766
f 96/195/9 94/194/9 97/196/9

v 0 2.0119 -5.33641
f 93/50/25 98/49/24 97/77/24 94/78/25 

vt -4.42333 1.66766
f 93/190/3 95/191/3 98/197/3

v 0 3.417 -5.33641
vt -4.42333 2.83234
f 98/197/3 95/191/3 99/198/3

vn 0 0.258819 -0.965926
vt -4.5 1.51138
v 5.4289 3.417 -5.33641
vt -4.5 0.924007
f 99/56/33 95/55/32 96/199/32 100/200/33 

vt 4.42333 2.83234
f 96/195/9 97/196/9 100/201/9

v 5.4289 2.71445 -5.4289
f 100/201/9 97/196/9 101/29/9

v 0 2.71445 -5.4289
vn 0 -1.81968e-16 -1
f 98/45/24 102/44/34 101/75/34 97/76/24 

vt -4.5 2.25
f 98/197/3 99/198/3 102/202/3

vt -4.5 1.64338
f 102/40/34 99/45/33 100/76/33 101/203/34 

vt -4.5 2.04312
vt -4.5 1.83101
f 12/179/33 13/178/23 50/204/23 49/205/33 

vt -4.5 1.32374
vt -4.5 1.11164
f 11/164/32 12/163/33 49/206/33 48/207/32 

vt -4.5 0.521384
vt -4.5 0.309279
f 9/160/30 11/159/32 48/208/32 47/209/30 

vt -4.5 -0.309279
vt -4.5 -0.521384
f 8/156/29 9/155/30 47/210/30 46/211/29 

vt -4.5 -1.11164
vt -4.5 -1.32374
f 7/152/27 8/151/29 46/212/29 45/213/27 

vt -4.5 -1.83101
vt -4.5 -2.04312
f 2/137/2 7/136/27 45/214/27 3/215/2 

