# Alias OBJ Model File
# Exported from SketchUp, (c) 2000-2012 Trimble Navigation Limited
# File units = meters

mtllib zegarek_mtl

g Mesh1 Model

usemtl Color_B05
v -0.0272451 -1.35358e-16 -2.56893
vt -1.07264 101.139
vn 0 1 -0
v -0.0272451 -1.35358e-16 -2.83083
vt -1.07264 111.45
v -0.243938 -1.35358e-16 -2.84272
vt -9.60387 111.918
v -0.974611 -1.35358e-16 -2.68928
vt -38.3705 105.877
v -1.44638 -1.35358e-16 -2.45036
vt -56.9442 96.4707
v -1.31546 -1.35358e-16 -2.22359
vt -51.7898 87.543
v -1.05075 -1.35358e-16 -2.38076
vt -41.3681 93.7307
v -0.397333 -1.35358e-16 -2.56442
vt -15.643 100.961
v -0.0579899 -1.35358e-16 -2.56856
vt -2.28307 101.124
f 1/1/1 2/2/1 3/3/1 4/4/1 5/5/1 6/6/1 7/7/1 8/8/1 9/9/1 

v 1.26132 -1.35358e-16 -2.22419
vt 49.6582 87.5667
v 1.39229 -1.35358e-16 -2.45104
vt 54.8144 96.4975
v 1.21105 -1.35358e-16 -2.56936
vt 47.6792 101.156
v 0.50155 -1.35358e-16 -2.80182
vt 19.7461 110.308
v 0.281353 -1.35358e-16 -2.5727
vt 11.0769 101.287
v 0.939057 -1.35358e-16 -2.40505
vt 36.9707 94.6868
f 10/10/1 11/11/1 12/12/1 13/13/1 2/2/1 1/1/1 14/14/1 15/15/1 

v 2.20526 -1.35358e-16 -1.28128
vt 86.8213 50.4439
v 2.43212 -1.35358e-16 -1.41225
vt 95.7526 55.6004
v 2.33443 -1.35358e-16 -1.60514
vt 91.9067 63.1944
v 1.83621 -1.35358e-16 -2.1612
vt 72.2918 85.0865
v 1.53096 -1.35358e-16 -2.07288
vt 60.2739 81.6093
v 1.77384 -1.35358e-16 -1.83585
vt 69.8361 72.2777
v 2.01672 -1.35358e-16 -1.59883
vt 79.3983 62.946
f 16/16/1 17/17/1 18/18/1 19/19/1 11/11/1 10/10/1 20/20/1 21/21/1 22/22/1 

v 2.5514 -1.35358e-16 0.00766259
vt 100.449 -0.301677
v 2.81334 -1.35358e-16 0.00766259
vt 110.761 -0.301677
v 2.82519 -1.35358e-16 -0.208401
vt 111.228 8.20477
v 2.67175 -1.35358e-16 -0.939074
vt 105.187 36.9714
v 2.36323 -1.35358e-16 -1.01521
vt 93.0407 39.969
v 2.54689 -1.35358e-16 -0.361795
vt 100.271 14.2439
v 2.55103 -1.35358e-16 -0.0224526
vt 100.434 0.883961
f 23/23/1 24/24/1 25/25/1 26/26/1 17/17/1 16/16/1 27/27/1 28/28/1 29/29/1 

v 2.20643 -1.35358e-16 1.29728
vt 86.8674 -51.0739
v 2.43325 -1.35358e-16 1.42823
vt 95.7971 -56.2294
v 2.55184 -1.35358e-16 1.24659
vt 100.466 -49.0783
v 2.78429 -1.35358e-16 0.537088
vt 109.618 -21.1452
v 2.55517 -1.35358e-16 0.31689
vt 100.597 -12.476
v 2.38752 -1.35358e-16 0.974594
vt 93.9968 -38.3698
f 30/30/1 31/31/1 32/32/1 33/33/1 24/24/1 23/23/1 34/34/1 35/35/1 

v 1.26249 -1.35358e-16 2.24155
vt 49.7043 -88.2499
v 1.39341 -1.35358e-16 2.46832
vt 54.8588 -97.1778
v 1.58761 -1.35358e-16 2.36997
vt 62.5043 -93.3058
v 2.14367 -1.35358e-16 1.87175
vt 84.3965 -73.6909
v 2.05535 -1.35358e-16 1.56649
vt 80.9192 -61.673
v 1.5813 -1.35358e-16 2.05225
vt 62.256 -80.7974
f 36/36/1 37/37/1 38/38/1 39/39/1 31/31/1 30/30/1 40/40/1 41/41/1 

v -0.0272451 -1.35358e-16 2.58696
vt -1.07264 -101.849
v -0.0272451 -1.35358e-16 2.84876
vt -1.07264 -112.156
v 0.190874 -1.35358e-16 2.86073
vt 7.51473 -112.627
v 0.921547 -1.35358e-16 2.70729
vt 36.2814 -106.586
v 0.997685 -1.35358e-16 2.39877
vt 39.2789 -94.4398
v 0.344268 -1.35358e-16 2.58243
vt 13.5539 -101.67
v 0.00492558 -1.35358e-16 2.58657
vt 0.193921 -101.833
f 42/42/1 43/43/1 44/44/1 45/45/1 37/37/1 36/36/1 46/46/1 47/47/1 48/48/1 

v -1.31663 -1.35358e-16 2.24094
vt -51.8358 -88.2261
v -1.44751 -1.35358e-16 2.46764
vt -56.9886 -97.151
v -1.26412 -1.35358e-16 2.58737
vt -49.7683 -101.865
v -0.554615 -1.35358e-16 2.81983
vt -21.8352 -111.017
v -0.334417 -1.35358e-16 2.59071
vt -13.166 -101.997
v -0.992121 -1.35358e-16 2.42306
vt -39.0599 -95.3959
f 49/49/1 50/50/1 51/51/1 52/52/1 43/43/1 42/42/1 53/53/1 54/54/1 

v -2.25988 -1.35358e-16 1.29667
vt -88.9715 -51.0501
v -2.48656 -1.35358e-16 1.42755
vt -97.8959 -56.2026
v -2.3875 -1.35358e-16 1.62315
vt -93.9959 -63.9034
v -1.88928 -1.35358e-16 2.17921
vt -74.381 -85.7956
v -1.58402 -1.35358e-16 2.09089
vt -62.3631 -82.3183
v -2.06978 -1.35358e-16 1.61684
vt -81.4875 -63.6551
f 55/55/1 56/56/1 57/57/1 58/58/1 50/50/1 49/49/1 59/59/1 60/60/1 

v -2.6045 -1.35358e-16 0.00766259
vt -102.539 -0.301677
v -2.86626 -1.35358e-16 0.00766259
vt -112.845 -0.301677
v -2.87826 -1.35358e-16 0.226411
vt -113.317 -8.91383
v -2.72482 -1.35358e-16 0.957084
vt -107.276 -37.6805
v -2.4163 -1.35358e-16 1.03322
vt -95.1298 -40.678
v -2.59996 -1.35358e-16 0.379806
vt -102.36 -14.953
v -2.6041 -1.35358e-16 0.0404629
vt -102.523 -1.59303
f 61/61/1 62/62/1 63/63/1 64/64/1 56/56/1 55/55/1 65/65/1 66/66/1 67/67/1 

v -2.25871 -1.35358e-16 -1.28067
vt -88.9255 50.4202
v -2.48543 -1.35358e-16 -1.41157
vt -97.8515 55.5736
v -2.6049 -1.35358e-16 -1.22858
vt -102.555 48.3692
v -2.83736 -1.35358e-16 -0.519077
vt -111.707 20.4361
v -2.60824 -1.35358e-16 -0.29888
vt -102.687 11.7669
v -2.44058 -1.35358e-16 -0.956584
vt -96.0859 37.6608
f 68/68/1 69/69/1 70/70/1 71/71/1 62/62/1 61/61/1 72/72/1 73/73/1 

v -2.19674 -1.35358e-16 -1.85374
vt -86.4857 72.9819
v -2.10841 -1.35358e-16 -1.54848
vt -83.0084 60.9639
v -1.63437 -1.35358e-16 -2.03424
vt -64.3451 80.0884
v -1.64067 -1.35358e-16 -2.35196
vt -64.5935 92.5968
f 74/74/1 69/69/1 68/68/1 75/75/1 76/76/1 6/6/1 5/5/1 77/77/1 

usemtl Color_E05
v -2.72924 -1.35358e-16 -1.55234
vt -107.451 61.1156
v -1.58725 -1.35358e-16 -2.69434
vt -62.49 106.076
v -1.59076 -1.35358e-16 -2.70043
vt -62.6284 106.316
f 78/78/1 69/69/1 74/74/1 77/77/1 5/5/1 79/79/1 80/80/1 

v -3.14725 -1.35358e-16 0.00766259
vt -123.907 -0.301677
v -2.73533 -1.35358e-16 -1.55585
vt -107.69 61.2541
f 81/81/1 62/62/1 71/71/1 70/70/1 69/69/1 78/78/1 82/82/1 

v -2.72924 -1.35358e-16 1.56766
vt -107.451 -61.719
v -3.15428 -1.35358e-16 0.00766259
vt -124.184 -0.301677
f 83/83/1 56/56/1 64/64/1 63/63/1 62/62/1 81/81/1 84/84/1 

v -1.58725 -1.35358e-16 2.70966
vt -62.49 -106.68
v -2.73533 -1.35358e-16 1.57118
vt -107.69 -61.8574
f 85/85/1 50/50/1 58/58/1 57/57/1 56/56/1 83/83/1 86/86/1 

v -0.0272451 -1.35358e-16 3.12766
vt -1.07264 -123.136
v -1.59076 -1.35358e-16 2.71575
vt -62.6284 -106.919
f 87/87/1 43/43/1 52/52/1 51/51/1 50/50/1 85/85/1 88/88/1 

v 1.53275 -1.35358e-16 2.70966
vt 60.3447 -106.68
v -0.0272451 -1.35358e-16 3.13469
vt -1.07264 -123.413
f 89/89/1 37/37/1 45/45/1 44/44/1 43/43/1 87/87/1 90/90/1 

v 2.67475 -1.35358e-16 1.56766
vt 105.305 -61.719
v 1.53627 -1.35358e-16 2.71575
vt 60.4831 -106.919
f 91/91/1 31/31/1 39/39/1 38/38/1 37/37/1 89/89/1 92/92/1 

v 3.09275 -1.35358e-16 0.00766259
vt 121.762 -0.301677
v 2.68084 -1.35358e-16 1.57118
vt 105.545 -61.8574
f 93/93/1 24/24/1 33/33/1 32/32/1 31/31/1 91/91/1 94/94/1 

v 2.67475 -1.35358e-16 -1.55234
vt 105.305 61.1156
v 3.09979 -1.35358e-16 0.00766259
vt 122.039 -0.301677
f 95/95/1 17/17/1 26/26/1 25/25/1 24/24/1 93/93/1 96/96/1 

v 1.53275 -1.35358e-16 -2.69434
vt 60.3447 106.076
v 2.68084 -1.35358e-16 -1.55585
vt 105.545 61.2541
f 97/97/1 11/11/1 19/19/1 18/18/1 17/17/1 95/95/1 98/98/1 

v -0.0272451 -1.35358e-16 -3.11234
vt -1.07264 122.533
v 1.53627 -1.35358e-16 -2.70043
vt 60.4831 106.316
f 99/99/1 2/2/1 13/13/1 12/12/1 11/11/1 97/97/1 100/100/1 

v -0.0272451 -1.35358e-16 -3.11937
vt -1.07264 122.81
f 79/79/1 5/5/1 4/4/1 3/3/1 2/2/1 99/99/1 101/101/1 

usemtl Color_A01
vn -1.66598e-17 1 -1.51358e-16
v -0.0272451 -4.96314e-16 -2.43055
vt -1.07264 95.6908
v 0.758671 -8.5727e-16 -1.75813
vt 29.8689 69.2177
v 0.358671 -8.5727e-16 -1.75813
vt 14.1209 69.2177
v 0.358671 3.15836e-16 -0.181639
vt 14.1209 7.15115
v 0.37602 1.3987e-15 -0.152807
vt 14.804 6.016
v 0.409194 1.48894e-15 -0.0373954
vt 16.11 1.47226
v 0.411366 1.48894e-15 0.0826691
vt 16.1955 -3.25469
v 0.382389 1.48894e-15 0.199205
vt 15.0547 -7.8427
v 0.380673 1.48894e-15 0.202305
vt 14.9871 -7.96475
v 0.701197 1.48894e-15 0.554556
vt 27.6062 -21.8329
v 0.849123 1.30846e-15 0.419953
vt 33.43 -16.5336
v 0.784039 1.57918e-15 0.938775
vt 30.8677 -36.9596
v 0.261395 1.57918e-15 0.954745
vt 10.2911 -37.5884
v 0.409321 1.57918e-15 0.820142
vt 16.115 -32.2891
v 0.0879775 1.57918e-15 0.46699
vt 3.46368 -18.3855
v 0.0225714 1.66942e-15 0.48579
vt 0.88864 -19.1256
v -0.097493 1.66942e-15 0.487963
vt -3.83831 -19.2111
v -0.214029 1.75966e-15 0.458986
vt -8.42632 -18.0703
v -0.319094 1.75966e-15 0.400835
vt -12.5627 -15.7809
v -0.405528 1.75966e-15 0.317472
vt -15.9657 -12.4989
v -0.467441 1.75966e-15 0.21458
vt -18.4032 -8.44801
v -0.500614 1.75966e-15 0.0991684
vt -19.7092 -3.90427
v -0.502787 1.66942e-15 -0.0208961
vt -19.7947 0.82268
v -0.47381 1.66942e-15 -0.137432
vt -18.6539 5.41069
v -0.430576 3.15836e-16 -0.215544
vt -16.9518 8.48597
v -0.430576 -1.03775e-15 -1.75813
vt -16.9518 69.2177
v -0.830576 -1.48894e-15 -1.75813
vt -32.6999 69.2177
v -0.0359528 -8.5727e-16 -2.438
vt -1.41546 95.9841
v -0.0272451 -1.35358e-16 -2.56893
v -0.0272451 -1.35358e-16 -2.56893
f 75/75/2 68/68/2 73/73/2 72/72/2 61/61/2 67/67/2 66/66/2 65/65/2 55/55/2 60/60/2 59/59/2 49/49/2 54/54/2 53/53/2 42/42/2 48/48/2 47/47/2 46/46/2 36/36/2 41/41/2 40/40/2 30/30/2 35/35/2 34/34/2 23/23/2 29/29/2 28/28/2 27/27/2 16/16/2 22/22/2 21/21/2 20/20/2 10/10/2 15/15/2 14/14/2 1/1/2 102/102/2 103/103/2 104/104/2 105/105/2 106/106/2 107/107/2 108/108/2 109/109/2 110/110/2 111/111/2 112/112/2 113/113/2 114/114/2 115/115/2 116/116/2 117/117/2 118/118/2 119/119/2 120/120/2 121/121/2 122/122/2 123/123/2 124/124/2 125/125/2 126/126/2 127/127/2 128/128/2 129/129/2 130/1/2 131/1/2 9/9/2 8/8/2 7/7/2 6/6/2 76/76/2 

usemtl Color_B05
vn -1.51744e-16 1 -1.18814e-15
v -0.415659 1.66942e-15 -0.242497
vt -16.3645 9.54711
v -0.332296 1.57918e-15 -0.328931
vt -13.0825 12.95
v -0.229403 1.57918e-15 -0.390844
vt -9.03163 15.3876
v -0.113992 1.48894e-15 -0.424017
vt -4.48789 16.6936
v 0.00607216 1.48894e-15 -0.42619
vt 0.239061 16.7791
v 0.122608 1.48894e-15 -0.397213
vt 4.82708 15.6383
v 0.227673 1.3987e-15 -0.339062
vt 8.96349 13.3489
v 0.314107 1.3987e-15 -0.255699
vt 12.3664 10.0669
f 129/129/3 128/128/3 127/127/3 126/126/3 132/130/3 133/131/3 134/132/3 135/133/3 136/134/3 137/135/3 138/136/3 139/137/3 105/105/3 104/104/3 103/103/3 102/102/3 

usemtl Color_A08
vn 2.66374e-16 1 -4.01977e-16
v 0.137983 1.57918e-15 0.452617
vt 5.43239 -17.8196
v 0.240875 1.57918e-15 0.390704
vt 9.48328 -15.382
v 0.324238 1.57918e-15 0.30427
vt 12.7653 -11.9791
f 117/117/4 116/116/4 140/138/4 141/139/4 142/140/4 110/110/4 109/109/4 108/108/4 107/107/4 106/106/4 105/105/4 139/137/4 138/136/4 137/135/4 136/134/4 135/133/4 134/132/4 133/131/4 132/130/4 126/126/4 125/125/4 124/124/4 123/123/4 122/122/4 121/121/4 120/120/4 119/119/4 118/118/4 

usemtl Color_B05
vn 2.4746e-16 1 -1.61199e-16
f 140/138/5 116/116/5 115/115/5 114/114/5 113/113/5 112/112/5 111/111/5 110/110/5 142/140/5 141/139/5 

