# Alias OBJ Model File
# Exported from SketchUp, (c) 2000-2012 Trimble Navigation Limited
# File units = meters

mtllib zegarek.mtl

g Mesh1 Model

usemtl Color_B05
v -0.000356452 0 -1.28897
vt -0.0140335 50.7468
vn 0 1 -0
v -0.000356452 0 -1.41992
vt -0.0140335 55.9023
v -0.108703 0 -1.42586
vt -4.27965 56.1363
v -0.474039 0 -1.34914
vt -18.663 53.1159
v -0.709925 0 -1.22968
vt -27.9498 48.4126
v -0.644464 0 -1.1163
vt -25.3726 43.9487
v -0.512108 0 -1.19488
vt -20.1617 47.0426
v -0.1854 0 -1.28671
vt -7.29922 50.6579
v -0.0157289 0 -1.28878
vt -0.619247 50.7395
f 1/1/1 2/2/1 3/3/1 4/4/1 5/5/1 6/6/1 7/7/1 8/8/1 9/9/1 

v 0.643925 0 -1.1166
vt 25.3514 43.9606
v 0.709409 0 -1.23002
vt 27.9295 48.426
v 0.618792 0 -1.28918
vt 24.3619 50.7553
v 0.264041 0 -1.40541
vt 10.3953 55.3312
v 0.153943 0 -1.29085
vt 6.06073 50.821
v 0.482794 0 -1.20703
vt 19.0077 47.5207
f 10/10/1 11/11/1 12/12/1 13/13/1 2/2/1 1/1/1 14/14/1 15/15/1 

v 1.1159 0 -0.64514
vt 43.9329 25.3992
v 1.22932 0 -0.710628
vt 48.3986 27.9775
v 1.18048 0 -0.807071
vt 46.4757 31.7744
v 0.931372 0 -1.0851
vt 36.6682 42.7205
v 0.778745 0 -1.04094
vt 30.6592 40.9819
v 0.900185 0 -0.922429
vt 35.4403 36.3161
v 1.02162 0 -0.803917
vt 40.2214 31.6503
f 16/16/1 17/17/1 18/18/1 19/19/1 11/11/1 10/10/1 20/20/1 21/21/1 22/22/1 

v 1.28897 0 -0.00067126
vt 50.7467 0.0264276
v 1.41994 0 -0.00067126
vt 55.903 0.0264276
v 1.42586 0 -0.108703
vt 56.1363 4.27965
v 1.34914 0 -0.474039
vt 53.1159 18.663
v 1.19488 0 -0.512108
vt 47.0426 20.1617
v 1.28671 0 -0.1854
vt 50.6579 7.29922
v 1.28878 0 -0.0157289
vt 50.7395 0.619247
f 23/23/1 24/24/1 25/25/1 26/26/1 17/17/1 16/16/1 27/27/1 28/28/1 29/29/1 

v 1.11648 0 0.644136
vt 43.956 -25.3597
v 1.22989 0 0.709611
vt 48.4208 -27.9374
v 1.28918 0 0.618792
vt 50.7553 -24.3619
v 1.40541 0 0.264041
vt 55.3312 -10.3953
v 1.29085 0 0.153943
vt 50.821 -6.06073
v 1.20703 0 0.482794
vt 47.5207 -19.0077
f 30/30/1 31/31/1 32/32/1 33/33/1 24/24/1 23/23/1 34/34/1 35/35/1 

v 0.64451 0 1.11627
vt 25.3744 -43.9477
v 0.709973 0 1.22966
vt 27.9517 -48.4116
v 0.807071 0 1.18048
vt 31.7744 -46.4757
v 1.0851 0 0.931372
vt 42.7205 -36.6682
v 1.04094 0 0.778745
vt 40.9819 -30.6592
v 0.803917 0 1.02162
vt 31.6503 -40.2214
f 36/36/1 37/37/1 38/38/1 39/39/1 31/31/1 30/30/1 40/40/1 41/41/1 

v -0.000356452 0 1.28898
vt -0.0140335 -50.7472
v -0.000356452 0 1.41988
vt -0.0140335 -55.9007
v 0.108703 0 1.42586
vt 4.27965 -56.1363
v 0.474039 0 1.34914
vt 18.663 -53.1159
v 0.512108 0 1.19488
vt 20.1617 -47.0426
v 0.1854 0 1.28671
vt 7.29922 -50.6579
v 0.0157289 0 1.28878
vt 0.619247 -50.7395
f 42/42/1 43/43/1 44/44/1 45/45/1 37/37/1 36/36/1 46/46/1 47/47/1 48/48/1 

v -0.645049 0 1.11597
vt -25.3956 -43.9358
v -0.71049 0 1.22932
vt -27.972 -48.3982
v -0.618792 0 1.28918
vt -24.3619 -50.7553
v -0.264041 0 1.40541
vt -10.3953 -55.3312
v -0.153943 0 1.29085
vt -6.06073 -50.821
v -0.482794 0 1.20703
vt -19.0077 -47.5207
f 49/49/1 50/50/1 51/51/1 52/52/1 43/43/1 42/42/1 53/53/1 54/54/1 

v -1.11667 0 0.643834
vt -43.9635 -25.3478
v -1.23001 0 0.709271
vt -48.4257 -27.924
v -1.18048 0 0.807071
vt -46.4757 -31.7744
v -0.931372 0 1.0851
vt -36.6682 -42.7205
v -0.778745 0 1.04094
vt -30.6592 -40.9819
v -1.02162 0 0.803917
vt -40.2214 -31.6503
f 55/55/1 56/56/1 57/57/1 58/58/1 50/50/1 49/49/1 59/59/1 60/60/1 

v -1.28898 0 -0.00067126
vt -50.7473 0.0264276
v -1.41986 0 -0.00067126
vt -55.9001 0.0264276
v -1.42586 0 0.108703
vt -56.1363 -4.27965
v -1.34914 0 0.474039
vt -53.1159 -18.663
v -1.19488 0 0.512108
vt -47.0426 -20.1617
v -1.28671 0 0.1854
vt -50.6579 -7.29922
v -1.28878 0 0.0157289
vt -50.7395 -0.619247
f 61/61/1 62/62/1 63/63/1 64/64/1 56/56/1 55/55/1 65/65/1 66/66/1 67/67/1 

v -1.11609 0 -0.644839
vt -43.9404 25.3874
v -1.22945 0 -0.710287
vt -48.4034 27.9641
v -1.28918 0 -0.618792
vt -50.7553 24.3619
v -1.40541 0 -0.264041
vt -55.3312 10.3953
v -1.29085 0 -0.153943
vt -50.821 6.06073
v -1.20703 0 -0.482794
vt -47.5207 19.0077
f 68/68/1 69/69/1 70/70/1 71/71/1 62/62/1 61/61/1 72/72/1 73/73/1 

v -1.0851 0 -0.931372
vt -42.7205 36.6682
v -1.04094 0 -0.778745
vt -40.9819 30.6592
v -0.803917 0 -1.02162
vt -31.6503 40.2214
v -0.807071 0 -1.18048
vt -31.7744 46.4757
f 74/74/1 69/69/1 68/68/1 75/75/1 76/76/1 6/6/1 5/5/1 77/77/1 

usemtl Color_E05
v -1.35136 0 -0.780671
vt -53.203 30.7351
v -0.780356 0 -1.35167
vt -30.7227 53.2154
v -0.782114 0 -1.35472
vt -30.7919 53.3353
f 78/78/1 69/69/1 74/74/1 77/77/1 5/5/1 79/79/1 80/80/1 

v -1.56036 0 -0.00067126
vt -61.4314 0.0264276
v -1.3544 0 -0.782429
vt -53.3229 30.8043
f 81/81/1 62/62/1 71/71/1 70/70/1 69/69/1 78/78/1 82/82/1 

v -1.35136 0 0.779329
vt -53.203 -30.6822
v -1.56387 0 -0.00067126
vt -61.5698 0.0264276
f 83/83/1 56/56/1 64/64/1 63/63/1 62/62/1 81/81/1 84/84/1 

v -0.780356 0 1.35033
vt -30.7227 -53.1625
v -1.3544 0 0.781087
vt -53.3229 -30.7514
f 85/85/1 50/50/1 58/58/1 57/57/1 56/56/1 83/83/1 86/86/1 

v -0.000356452 0 1.55933
vt -0.0140335 -61.3909
v -0.782114 0 1.35337
vt -30.7919 -53.2824
f 87/87/1 43/43/1 52/52/1 51/51/1 50/50/1 85/85/1 88/88/1 

v 0.779644 0 1.35033
vt 30.6946 -53.1625
v -0.000356452 0 1.56284
vt -0.0140335 -61.5293
f 89/89/1 37/37/1 45/45/1 44/44/1 43/43/1 87/87/1 90/90/1 

v 1.35064 0 0.779329
vt 53.1749 -30.6822
v 0.781402 0 1.35337
vt 30.7638 -53.2824
f 91/91/1 31/31/1 39/39/1 38/38/1 37/37/1 89/89/1 92/92/1 

v 1.55964 0 -0.00067126
vt 61.4033 0.0264276
v 1.35369 0 0.781087
vt 53.2948 -30.7514
f 93/93/1 24/24/1 33/33/1 32/32/1 31/31/1 91/91/1 94/94/1 

v 1.35064 0 -0.780671
vt 53.1749 30.7351
v 1.56316 0 -0.00067126
vt 61.5417 0.0264276
f 95/95/1 17/17/1 26/26/1 25/25/1 24/24/1 93/93/1 96/96/1 

v 0.779644 0 -1.35167
vt 30.6946 53.2154
v 1.35369 0 -0.782429
vt 53.2948 30.8043
f 97/97/1 11/11/1 19/19/1 18/18/1 17/17/1 95/95/1 98/98/1 

v -0.000356452 0 -1.56067
vt -0.0140335 61.4438
v 0.781402 0 -1.35472
vt 30.7638 53.3353
f 99/99/1 2/2/1 13/13/1 12/12/1 11/11/1 97/97/1 100/100/1 

v -0.000356452 0 -1.56419
vt -0.0140335 61.5822
f 79/79/1 5/5/1 4/4/1 3/3/1 2/2/1 99/99/1 101/101/1 

usemtl Color_A01
f 68/68/1 60/60/1 75/75/1

f 68/68/1 55/55/1 60/60/1

f 68/68/1 65/65/1 55/55/1

f 73/73/1 65/65/1 68/68/1

f 73/73/1 66/66/1 65/65/1

f 73/73/1 67/67/1 66/66/1

f 73/73/1 61/61/1 67/67/1

f 61/61/1 73/73/1 72/72/1

f 75/75/1 60/60/1 76/76/1

f 76/76/1 60/60/1 59/59/1

f 76/76/1 59/59/1 6/6/1

f 6/6/1 59/59/1 49/49/1

f 6/6/1 49/49/1 54/54/1

f 6/6/1 54/54/1 7/7/1

f 7/7/1 54/54/1 8/8/1

v -0.238127 9.23265e-16 -0.0149506
vt -9.37509 0.588606
f 8/8/1 54/54/1 102/102/1

v -0.237041 9.34722e-16 0.0450816
vt -9.33233 -1.77487
f 54/54/1 103/103/1 102/102/1

f 103/103/1 54/54/1 53/53/1

v -0.220455 9.41325e-16 0.102787
vt -8.67931 -4.04674
f 103/103/1 53/53/1 104/104/1

v -0.189498 9.42625e-16 0.154234
vt -7.46055 -6.07219
f 104/104/1 53/53/1 105/105/1

v -0.146281 9.38534e-16 0.195915
vt -5.75908 -7.71318
f 105/105/1 53/53/1 106/106/1

f 106/106/1 53/53/1 42/42/1

v -0.0937482 9.2933e-16 0.22499
vt -3.69087 -8.85789
f 106/106/1 42/42/1 107/107/1

v -0.0354804 9.1564e-16 0.239479
vt -1.39687 -9.4283
f 107/107/1 42/42/1 108/108/1

v 0.0245518 8.98398e-16 0.238393
vt 0.966606 -9.38554
f 108/108/1 42/42/1 109/109/1

f 109/109/1 42/42/1 48/48/1

f 109/109/1 48/48/1 47/47/1

v 0.0572548 8.75395e-16 0.228993
vt 2.25413 -9.01546
f 109/109/1 47/47/1 110/110/1

v 0.143963 8.6351e-16 0.47287
vt 5.66785 -18.6169
f 110/110/1 47/47/1 111/111/1

v 0.405285 8.62979e-16 0.464885
vt 15.9561 -18.3025
f 111/111/1 47/47/1 112/112/1

f 112/112/1 47/47/1 46/46/1

v 0.437828 7.05592e-16 0.205474
vt 17.2373 -8.08953
f 112/112/1 46/46/1 113/113/1

f 113/113/1 46/46/1 15/15/1

f 15/15/1 46/46/1 10/10/1

f 10/10/1 46/46/1 36/36/1

f 10/10/1 36/36/1 20/20/1

f 20/20/1 36/36/1 41/41/1

f 20/20/1 41/41/1 21/21/1

f 21/21/1 41/41/1 40/40/1

f 21/21/1 40/40/1 22/22/1

f 22/22/1 40/40/1 16/16/1

f 16/16/1 40/40/1 30/30/1

f 16/16/1 30/30/1 27/27/1

f 27/27/1 30/30/1 35/35/1

f 27/27/1 35/35/1 28/28/1

f 28/28/1 35/35/1 34/34/1

f 28/28/1 34/34/1 29/29/1

f 29/29/1 34/34/1 23/23/1

v 0.363865 8.18391e-16 0.272775
vt 14.3254 -10.7392
f 15/15/1 114/114/1 113/113/1

v 0.218949 8.03755e-16 0.036832
vt 8.62004 -1.45008
f 15/15/1 115/115/1 114/114/1

v 0.217863 7.92298e-16 -0.0232002
vt 8.57728 0.913395
f 15/15/1 116/116/1 115/115/1

v 0.201276 7.85695e-16 -0.0809058
vt 7.92426 3.18527
f 15/15/1 117/117/1 116/116/1

v 0.192602 2.12187e-16 -0.0953222
vt 7.58274 3.75284
f 15/15/1 118/118/1 117/117/1

v 0.17032 7.84395e-16 -0.132352
vt 6.7055 5.21072
f 15/15/1 119/119/1 118/118/1

f 14/14/1 119/119/1 15/15/1

v 0.127102 7.88486e-16 -0.174033
vt 5.00403 6.85171
f 14/14/1 120/120/1 119/119/1

v 0.0745699 7.9769e-16 -0.203109
vt 2.93582 7.99642
f 14/14/1 121/121/1 120/120/1

v 0.0163022 8.1138e-16 -0.217597
vt 0.641817 8.56683
f 14/14/1 122/122/1 121/121/1

f 1/1/1 122/122/1 14/14/1

f 9/9/1 122/122/1 1/1/1

v -0.0437301 8.28622e-16 -0.216511
vt -1.72166 8.52407
f 9/9/1 123/123/1 122/122/1

v -0.101436 8.48241e-16 -0.199925
vt -3.99353 7.87105
f 9/9/1 124/124/1 123/123/1

v -0.152882 8.68902e-16 -0.168968
vt -6.01898 6.65228
f 9/9/1 125/125/1 124/124/1

f 8/8/1 125/125/1 9/9/1

v -0.194563 8.89195e-16 -0.125751
vt -7.65997 4.95082
f 8/8/1 126/126/1 125/125/1

v -0.202022 2.21378e-16 -0.112274
vt -7.95363 4.42025
f 8/8/1 127/127/1 126/126/1

v -0.223639 9.07737e-16 -0.0732184
vt -8.80468 2.88261
f 8/8/1 128/128/1 127/127/1

f 8/8/1 102/102/1 128/128/1

usemtl Color_A08
vn 2.59006e-16 1 -3.96554e-16
v 0.0822574 8.78779e-16 0.221806
vt 3.23848 -8.73252
v 0.133704 8.58118e-16 0.190849
vt 5.26393 -7.51376
v 0.175385 8.37826e-16 0.147632
vt 6.90492 -5.81229
v 0.203603 8.1911e-16 0.0966497
vt 8.01585 -3.80511
v 0.204461 8.19283e-16 0.0950998
vt 8.04963 -3.74409
f 109/109/2 110/110/2 129/129/2 130/130/2 131/131/2 132/132/2 133/133/2 115/115/2 116/116/2 117/117/2 118/118/2 119/119/2 120/120/2 121/121/2 122/122/2 123/123/2 124/124/2 125/125/2 126/126/2 127/127/2 128/128/2 102/102/2 103/103/2 104/104/2 105/105/2 106/106/2 107/107/2 108/108/2 

usemtl Color_B05
vn 3.00194e-16 1 -1.9591e-16
v 0.217927 8.6351e-16 0.405569
vt 8.57979 -15.9673
f 129/129/3 110/110/3 134/134/3 111/111/3 112/112/3 113/113/3 114/114/3 132/132/3 131/131/3 130/130/3 

usemtl Color_A01
f 134/134/1 110/110/1 111/111/1

f 114/114/1 133/133/1 132/132/1

f 133/133/1 114/114/1 115/115/1

usemtl Color_B05
v -0.0047103 -3.62017e-16 -1.2235
vt -0.185445 48.1693
vn -2.90752e-16 1 -1.51649e-16
v -0.402022 -6.76792e-16 -0.883567
vt -15.8276 34.7861
v -0.202022 -4.51195e-16 -0.883567
vt -7.95363 34.7861
v 0.192602 -3.60956e-16 -0.883567
vt 7.58274 34.7861
v 0.392602 -3.60956e-16 -0.883567
vt 15.4568 34.7861
v -0.000356452 -1.81003e-16 -1.21978
vt -0.0140335 48.0227
f 135/135/4 136/136/4 137/137/4 127/127/4 126/126/4 125/125/4 124/124/4 123/123/4 122/122/4 121/121/4 120/120/4 119/119/4 118/118/4 138/138/4 139/139/4 140/140/4 

